<svg width="172" height="24" viewBox="0 0 172 24" fill="none" xmlns="http://www.w3.org/2000/svg">
<g clipPath="url(#clip0_981_2760)">
<path d="M48.0876 6.28174H36.8698C35.6569 6.28174 34.6675 7.26828 34.6675 8.48409V17.1543C34.6675 17.4938 34.9428 17.7723 35.2854 17.7723H36.7826C37.1222 17.7723 37.4006 17.4967 37.4006 17.1543V9.49968C37.4006 9.05571 37.7635 8.693 38.2074 8.693H40.3431C40.787 8.693 41.1496 9.05571 41.1496 9.49968V17.1543C41.1496 17.4938 41.4253 17.7723 41.7675 17.7723H43.262C43.584 17.7723 43.88 17.4792 43.88 17.1543V9.49968C43.88 9.05571 44.2428 8.693 44.6867 8.693H46.8252C47.2691 8.693 47.632 9.05571 47.632 9.49968V17.1543C47.632 17.4938 47.9077 17.7723 48.25 17.7723H49.7444C50.0665 17.7723 50.3624 17.4792 50.3624 17.1543V8.55372C50.3624 7.30021 49.3441 6.28174 48.0903 6.28174H48.0876Z" fill="black"/>
<path d="M58.502 6.28174H57.3907C56.941 6.28174 56.5723 6.64733 56.5723 7.09999V16.954C56.5723 17.4038 56.9379 17.7723 57.3907 17.7723H58.4845C58.9343 17.7723 59.303 17.4067 59.303 16.954V7.08259C59.303 6.64153 58.9428 6.28174 58.502 6.28174Z" fill="black"/>
<path d="M74.5859 6.28174H67.7148C66.5019 6.28174 65.5125 7.26828 65.5125 8.48409V17.1543C65.5125 17.4938 65.7881 17.7723 66.1304 17.7723H67.6279C67.9675 17.7723 68.2459 17.4967 68.2459 17.1543V9.49968C68.2459 9.05571 68.6084 8.693 69.0527 8.693H73.3266C73.7709 8.693 74.1334 9.05571 74.1334 9.49968V17.1543C74.1334 17.4938 74.4091 17.7723 74.7514 17.7723H76.2458C76.5853 17.7723 76.8638 17.4967 76.8638 17.1543V8.55372C76.8638 7.30021 75.8455 6.28174 74.5917 6.28174H74.5859Z" fill="black"/>
<path d="M93.1559 6.28174H82.5795C82.24 6.28174 81.9612 6.55738 81.9612 6.89977V8.07497C81.9612 8.41444 82.2369 8.693 82.5795 8.693H86.0003C86.2674 8.693 86.4819 8.91063 86.4819 9.1747V16.9918C86.4819 17.4212 86.8304 17.7723 87.2626 17.7723H88.435C88.8645 17.7723 89.2154 17.4212 89.2154 16.9918V9.1747C89.2154 8.90774 89.4331 8.693 89.6971 8.693H93.1559C93.4955 8.693 93.7739 8.41735 93.7739 8.07497V6.89977C93.7739 6.6038 93.5391 6.28174 93.1559 6.28174Z" fill="black"/>
<path d="M115.221 6.28174H113.727C113.387 6.28174 113.109 6.55738 113.109 6.89977V10.3383C113.109 10.5849 112.908 10.788 112.659 10.788H107.598C107.352 10.788 107.149 10.5878 107.149 10.3383V6.89977C107.149 6.5603 106.873 6.28174 106.53 6.28174H105.036C104.697 6.28174 104.418 6.55738 104.418 6.89977V17.1543C104.418 17.4938 104.694 17.7723 105.036 17.7723H106.53C106.87 17.7723 107.149 17.4967 107.149 17.1543V13.6432C107.149 13.3966 107.349 13.1935 107.598 13.1935H112.659C112.905 13.1935 113.109 13.3937 113.109 13.6432V17.1543C113.109 17.4938 113.387 17.7723 113.727 17.7723H115.221C115.561 17.7723 115.839 17.4967 115.839 17.1543V6.89977C115.839 6.5603 115.561 6.28174 115.221 6.28174Z" fill="black"/>
<path d="M131.002 6.28174H124.386C123.037 6.28174 121.941 7.37856 121.941 8.72785V15.3262C121.941 16.6755 123.037 17.7723 124.386 17.7723H131.002C132.352 17.7723 133.449 16.6755 133.449 15.3262V8.72785C133.449 7.37856 132.352 6.28174 131.002 6.28174ZM130.718 14.5544C130.718 14.9983 130.355 15.361 129.911 15.361H125.477C125.034 15.361 124.671 14.9983 124.671 14.5544V9.49968C124.671 9.05571 125.034 8.693 125.477 8.693H129.911C130.355 8.693 130.718 9.05571 130.718 9.49968V14.5573V14.5544Z" fill="black"/>
<path d="M152.933 6.28174H141.718C140.503 6.28174 139.516 7.26828 139.516 8.48409V17.1543C139.516 17.4938 139.795 17.7723 140.134 17.7723H141.629C141.968 17.7723 142.246 17.4967 142.246 17.1543V9.49968C142.246 9.05571 142.609 8.693 143.053 8.693H145.189C145.633 8.693 145.995 9.05571 145.995 9.49968V17.1543C145.995 17.4938 146.271 17.7723 146.613 17.7723H148.108C148.43 17.7723 148.726 17.4792 148.726 17.1543V9.49968C148.726 9.05571 149.089 8.693 149.533 8.693H151.671C152.115 8.693 152.478 9.05571 152.478 9.49968V17.1543C152.478 17.4938 152.756 17.7723 153.096 17.7723H154.59C154.912 17.7723 155.208 17.4792 155.208 17.1543V8.55372C155.208 7.30021 154.187 6.28174 152.933 6.28174Z" fill="black"/>
<path d="M164.287 8.693H171.31C171.649 8.693 171.927 8.41735 171.927 8.07497V6.89977C171.927 6.5603 171.649 6.28174 171.31 6.28174H162.282C161.786 6.28174 161.38 6.68506 161.38 7.18414V16.8699C161.38 17.3661 161.783 17.7723 162.282 17.7723H171.31C171.649 17.7723 171.927 17.4967 171.927 17.1543V15.9791C171.927 15.6396 171.649 15.361 171.31 15.361H164.287C164.192 15.361 164.111 15.2827 164.111 15.184V13.3531C164.111 13.2573 164.189 13.1761 164.287 13.1761H169.296C169.618 13.1761 169.914 12.883 169.914 12.558V11.438C169.914 11.0985 169.635 10.8199 169.296 10.8199H164.287C164.192 10.8199 164.111 10.7416 164.111 10.6429V8.86421C164.111 8.76846 164.189 8.6872 164.287 8.6872V8.693Z" fill="black"/>
<path d="M23.1043 12.2795H23.1246L23.0897 11.9574C22.7967 9.33432 21.5228 6.74024 19.4888 4.622L19.9762 4.13453H19.9588L19.9734 4.12004L19.7238 3.9169C17.6404 2.23684 14.9709 1.32282 11.988 1.26769V0.571289L11.6688 0.606109C9.00792 0.890472 6.47478 2.13238 4.32465 4.20419L3.83134 3.71089L3.63112 3.96043C1.94816 6.04383 1.03704 8.71625 0.979004 11.7021H0.270996L0.305816 12.0241C0.598884 14.6531 1.87562 17.2501 3.91549 19.3683L3.42221 19.8615H3.42802L3.41931 19.8731H3.43962L3.67177 20.0618C5.75517 21.7418 8.4247 22.6559 11.4076 22.711V23.4219L11.7268 23.3871C14.3528 23.094 16.9469 21.8173 19.0651 19.7803L19.5671 20.2823V20.2649L19.7644 20.0211C21.4416 17.9407 22.3556 15.274 22.4137 12.294H23.1159L23.1043 12.2824V12.2795ZM17.9451 17.8333L17.5969 17.4851L17.5911 17.4909L17.5621 17.4619C18.6357 16.0401 19.2305 14.2613 19.2827 12.2824H19.3379L19.3495 12.294H19.7383C19.6832 14.4122 19.0709 16.3186 17.9393 17.8362L17.9451 17.8333ZM18.7111 11.7021V11.7137H18.7024L18.7111 11.7224V11.9923C18.7111 13.9276 18.1772 15.6687 17.1616 17.0498L16.8628 16.751L16.857 16.7568L16.6596 16.9541C15.3162 18.3005 13.668 19.1739 11.9908 19.4379V19.0085H11.7036C9.77107 19.0085 8.03298 18.4746 6.65468 17.4619L6.95354 17.163H6.94485L6.94773 17.1601L6.74463 16.957C5.40406 15.6164 4.53064 13.9712 4.26371 12.2969H4.69896L4.68736 12.2853V11.9951C4.68736 10.0626 5.22124 8.32453 6.23103 6.94623L6.54152 7.25672V7.2306L6.73883 7.0333C8.10841 5.66372 9.71594 4.81062 11.4105 4.55526V5.00212L11.4308 4.97891H11.7007C13.6361 4.97891 15.3771 5.51283 16.7554 6.5313L16.4565 6.83019L16.4623 6.83599L16.4507 6.8476H16.4768L16.6596 7.0333C18.0031 8.37967 18.8765 10.0249 19.1435 11.705H18.714L18.7111 11.7021ZM17.1993 6.09317L17.1703 6.12218C15.7485 5.04857 13.9698 4.45082 11.988 4.39857V3.93723C14.1091 3.98944 16.0184 4.60171 17.5388 5.73626L17.1935 6.08445L17.2023 6.09317H17.1993ZM11.4105 3.92851V3.96624C9.6492 4.21287 7.97493 5.05437 6.53861 6.41815L6.21071 6.09025C7.74861 4.62492 9.53604 3.71379 11.4105 3.44104V3.93142V3.92851ZM5.82479 6.5313C4.75698 7.95022 4.16504 9.72316 4.11282 11.6992H3.65436C3.70658 9.57807 4.31885 7.67165 5.44759 6.1541L5.82479 6.5313ZM3.67757 12.2882C3.93289 14.0292 4.79471 15.7383 6.13236 17.1514L5.8045 17.4793C4.36526 15.9646 3.43382 14.1424 3.14945 12.2882H3.67757ZM6.24264 17.8652C7.66155 18.933 9.43449 19.5279 11.4105 19.5801V20.0386C9.2894 19.9863 7.38299 19.3741 5.8654 18.2424L6.24264 17.8652ZM11.988 20.0473V20.0153C13.7318 19.76 15.4438 18.8982 16.8598 17.5576L16.9092 17.607V17.6157L17.1849 17.8913C15.6702 19.3305 13.845 20.262 11.9908 20.5434V20.0444L11.988 20.0473ZM19.7267 11.7108C19.4743 9.96399 18.6154 8.25199 17.2748 6.83308L17.6056 6.50229C19.0419 8.01696 19.9734 9.84211 20.2548 11.6963H19.7586V11.7079H19.7296L19.7267 11.7108ZM18.0147 6.09317L18.3426 5.76527C19.9879 7.49176 21.0528 9.57807 21.3661 11.6963H20.8351C20.5508 9.68831 19.5584 7.7181 18.0147 6.09317ZM17.9509 5.32421C16.3202 4.0852 14.2716 3.40621 11.9908 3.35108V2.88682C14.4167 2.93905 16.5958 3.64706 18.3252 4.9499L17.9509 5.32421ZM11.4076 2.8607C9.37643 3.13636 7.44684 4.10552 5.7987 5.68404L5.4708 5.35614C7.22341 3.67607 9.26328 2.63727 11.4076 2.3326V2.8636V2.8607ZM5.03263 5.74786C3.79653 7.3786 3.12044 9.42427 3.06821 11.705H2.60394C2.65617 9.2821 3.36128 7.10584 4.65831 5.37643L5.03263 5.75075V5.74786ZM2.56332 12.2911C2.85058 14.2962 3.84294 16.2664 5.38954 17.8913L5.06167 18.2192C3.41351 16.4956 2.34859 14.4093 2.03231 12.2911H2.56042H2.56332ZM5.45048 18.6545C7.08121 19.8935 9.1298 20.5696 11.4076 20.6218V21.0861C8.98471 21.0338 6.80845 20.3258 5.07616 19.0288L5.45048 18.6545ZM11.985 21.1296C13.993 20.8452 15.9632 19.8529 17.5911 18.3033L17.919 18.6312C16.1925 20.2794 14.1062 21.3443 11.985 21.6577V21.1296ZM18.7285 18.6168L18.3542 18.2424C19.5903 16.6117 20.2693 14.566 20.3245 12.2911H20.7887C20.7336 14.714 20.0256 16.8902 18.7285 18.6168ZM22.4717 11.6992H21.9407C21.6273 9.42719 20.5044 7.19579 18.7489 5.35614L19.0767 5.02824C20.9338 6.96656 22.1293 9.314 22.4717 11.6992ZM19.1058 4.16646L18.7314 4.54077C16.8889 3.13056 14.5704 2.36162 11.985 2.30939V1.84512C14.7155 1.89735 17.1645 2.69531 19.1058 4.16646ZM11.4076 1.74937C9.10947 2.05694 6.92453 3.15377 5.06167 4.9441L4.73377 4.6162C6.7011 2.72142 8.99632 1.55205 11.4076 1.21836V1.74937ZM3.87779 4.58139V4.59591L4.2463 4.96442C2.84188 6.80407 2.07583 9.12249 2.02361 11.705H1.55934C1.61157 8.97453 2.40953 6.5255 3.87779 4.5843V4.58139ZM0.923871 12.2853L0.929676 12.2911H1.45488C1.77116 14.5602 2.89701 16.7945 4.65543 18.6284L4.32753 18.9562C2.46756 17.0179 1.26917 14.6705 0.923871 12.2853ZM4.2956 19.8151L4.66992 19.4408C6.5096 20.8481 8.82803 21.6171 11.4105 21.6693V22.1336C8.68294 22.0813 6.23392 21.2863 4.2956 19.8151ZM11.988 22.7719V22.2409C14.26 21.9247 16.4942 20.8017 18.331 19.0433L18.6589 19.3712C16.7206 21.2312 14.3731 22.4295 11.988 22.7719ZM19.5178 19.4031L19.1435 19.0288C20.5508 17.1891 21.3197 14.8707 21.3749 12.2911H21.8391C21.784 15.0158 20.9889 17.4648 19.5207 19.4031H19.5178Z" fill="#0FA968"/>
</g>
<defs>
<clipPath id="clip0_981_2760">
<rect width="172" height="23.3453" fill="white" transform="translate(0 0.327393)"/>
</clipPath>
</defs>
</svg>
